<?xml version="1.0" encoding="utf-8"?>
<!-- Generator: Adobe Illustrator 28.0.0, SVG Export Plug-In . SVG Version: 6.00 Build 0)  -->
<svg version="1.1" xmlns="http://www.w3.org/2000/svg" xmlns:xlink="http://www.w3.org/1999/xlink" x="0px" y="0px"
	 viewBox="0 0 283.46 283.46" style="enable-background:new 0 0 283.46 283.46;" xml:space="preserve">
<style type="text/css">
	.st0{fill:#006839;}
	.st1{fill:#F68B1F;}
	.st2{fill:#FFFFFF;}
	.st3{clip-path:url(#SVGID_00000073683186863841778710000005330919379451662247_);fill:#006839;}
	.st4{fill:none;stroke:#FFFFFF;stroke-width:0.62;stroke-dasharray:2.568,2.568;}
	.st5{fill:none;stroke:#FFFFFF;stroke-width:0.62;}
	.st6{clip-path:url(#SVGID_00000073695038967592981740000010161094040730658435_);fill:#F68B1F;}
	.st7{clip-path:url(#SVGID_00000016770994161656227750000005690388124268015515_);}
	.st8{clip-path:url(#SVGID_00000008834334324602276860000002208570579141307545_);fill:#F26522;}
	.st9{clip-path:url(#SVGID_00000008834334324602276860000002208570579141307545_);fill:#FDB913;}
	.st10{fill:#6D6E71;}
	.st11{fill:none;stroke:#BCBEC0;stroke-width:0.25;}
	.st12{clip-path:url(#SVGID_00000019637450791095042180000006378899990581815217_);fill:#AECEB9;}
	.st13{clip-path:url(#SVGID_00000019637450791095042180000006378899990581815217_);fill:#6FA48B;}
	.st14{clip-path:url(#SVGID_00000019637450791095042180000006378899990581815217_);fill:#247E59;}
	.st15{clip-path:url(#SVGID_00000137121260989671742350000001116901856764067223_);fill:#58595B;}
	.st16{clip-path:url(#SVGID_00000137121260989671742350000001116901856764067223_);fill:#808285;}
	.st17{clip-path:url(#SVGID_00000137121260989671742350000001116901856764067223_);fill:#DCDDDE;}
	.st18{clip-path:url(#SVGID_00000137121260989671742350000001116901856764067223_);fill:#BCBEC0;}
	.st19{clip-path:url(#SVGID_00000137121260989671742350000001116901856764067223_);fill:#F1F2F2;}
	.st20{clip-path:url(#SVGID_00000137121260989671742350000001116901856764067223_);fill:none;stroke:#DCDDDE;stroke-width:0.25;}
	.st21{clip-path:url(#SVGID_00000167364696235007197720000010393581616541248139_);}
	.st22{clip-path:url(#SVGID_00000049180824043620540680000015582333921641154178_);fill:#6E82B7;}
	.st23{clip-path:url(#SVGID_00000102505004893434443550000010266494691624449975_);fill:#DA5247;}
	.st24{clip-path:url(#SVGID_00000109728460044547653170000013866998353911009952_);fill:#A82A2C;}
	.st25{clip-path:url(#SVGID_00000109728460044547653170000013866998353911009952_);fill:#F3715A;}
	.st26{clip-path:url(#SVGID_00000049931264231063280290000012333253918535472317_);}
	.st27{clip-path:url(#SVGID_00000106835971493731422160000015934107139572809378_);fill:#98A5D4;}
	.st28{clip-path:url(#SVGID_00000106835971493731422160000015934107139572809378_);fill:#425195;}
	.st29{clip-path:url(#SVGID_00000155107528042086140590000011009002513919324347_);}
	.st30{fill:#6E82B7;}
	.st31{fill:#DA5247;}
	.st32{fill:none;stroke:#A7A9AC;stroke-width:0.25;stroke-miterlimit:10;}
	.st33{fill:url(#SVGID_00000111879571862962637150000013970088241703541409_);}
	.st34{fill:url(#SVGID_00000142879845109219797510000002887486852593880982_);}
	.st35{fill:url(#SVGID_00000034800843248586000090000001278909883124887979_);}
	.st36{fill:url(#SVGID_00000051367453517821502940000016692964289773118598_);}
	.st37{fill:url(#SVGID_00000147211332141893977790000012553477458344427710_);}
	.st38{fill:none;stroke:#247E59;stroke-width:0.257;stroke-miterlimit:10;}
	.st39{fill:none;stroke:#247E59;stroke-width:0.616;stroke-miterlimit:10;}
	.st40{fill:#247E59;}
</style>
<g id="logo">
	<g>
		<path class="st2" d="M237.48,101.36h4.27c-1.06-18.28-15.69-32.91-33.96-33.97v4.27C223.7,72.7,236.43,85.43,237.48,101.36z"/>
		<path class="st2" d="M231.07,101.36h4.28c-1.04-14.75-12.82-26.53-27.57-27.57v4.28C220.17,79.09,230.04,88.96,231.07,101.36z"/>
		<path class="st2" d="M243.88,101.36h4.26c-1.07-21.81-18.56-39.3-40.36-40.37v4.27C227.23,66.33,242.81,81.9,243.88,101.36z"/>
		<path class="st2" d="M27.05,154.49c-0.04,0-25.63,0-25.63,0v67.98l25.51,0c18.77-0.03,33.97-15.23,33.97-33.99
			C60.9,169.76,45.76,154.58,27.05,154.49z M26.89,205.48h-8.46v-33.99h8.46c9.39,0,17.01,7.61,17.01,17
			C43.89,197.87,36.28,205.48,26.89,205.48z"/>
		<polygon class="st2" points="265.05,154.49 265.05,193.79 242.29,154.49 222.58,154.49 222.58,222.47 239.58,222.47 
			239.58,183.65 261.99,222.47 282.05,222.47 282.05,154.49 		"/>
		<polygon class="st2" points="137.52,171.49 154.52,171.49 154.52,222.47 171.51,222.47 171.51,171.49 188.51,171.49 
			188.51,154.49 137.52,154.49 		"/>
		<rect x="197" y="154.49" class="st2" width="17" height="67.98"/>
		<path class="st2" d="M205.65,146.02c22.78,0,41.38-17.91,42.49-40.41h-17.07c-1.08,13.1-12.04,23.39-25.42,23.39
			c-14.1,0-25.52-11.43-25.52-25.52c0-13.38,10.3-24.33,23.4-25.42V60.99c-22.51,1.11-40.41,19.71-40.41,42.49
			C163.11,126.97,182.16,146.02,205.65,146.02z"/>
		<path class="st2" d="M103.46,154.49c-18.77,0-33.99,15.22-33.99,33.99c0,18.77,15.22,33.99,33.99,33.99
			c18.77,0,33.99-15.22,33.99-33.99C137.45,169.71,122.23,154.49,103.46,154.49z M103.46,205.4c-9.34,0-16.92-7.58-16.92-16.92
			c0-9.35,7.58-16.92,16.92-16.92s16.92,7.58,16.92,16.92C120.38,197.83,112.8,205.4,103.46,205.4z"/>
	</g>
</g>
<g id="Stroke2">
</g>
<g id="Stroke1">
</g>
<g id="Point">
</g>
</svg>
